#!OML:ASF I:\golf\golf\golf 2\Subject 1\2002-09-07\Subject1.ASF
:FULLY-SPECIFIED
:DEGREES
71
root 0.183136 17.8868 -9.86602 8.59418 -1.93362 -6.06296
lowerback -7.02067 0.504512 -0.764904
upperback 0.207381 0.548145 4.47826
thorax 4.1088 0.208876 5.16009
lowerneck -17.5649 -0.782107 0.0677994
upperneck 40.0445 0.991744 -5.25094
head 17.868 -0.346665 -2.25728
rclavicle -1.36167e-014 -1.19271e-014
rhumerus -28.5 0.147611 -84.0672
rradius 26.13
rwrist -8.21693
rhand -19.4768 11.4828
rfingers 7.12502
rthumb 6.84492 -18.3865
lclavicle -1.36167e-014 -1.19271e-014
lhumerus -28.1793 6.32472 85.6214
lradius 24.396
lwrist -0.748838
lhand -8.22279 30.4746
lfingers 7.12502
lthumb 17.6945 59.6895
rfemur -17.0649 2.92468 22.5535
rtibia 29.937
rfoot -16.7782 -4.14855
rtoes 2.04956
lfemur -16.1512 2.59449 -11.3
ltibia 32.5479
lfoot -19.8399 1.70699
ltoes -9.21485
72
root 0.185965 17.8861 -9.86372 8.55 -1.94198 -6.03602
lowerback -6.95709 0.483327 -0.834322
upperback 0.22703 0.525633 4.48608
thorax 4.09497 0.196061 5.20477
lowerneck -17.1648 -0.768668 0.592052
upperneck 39.6626 1.01517 -5.79124
head 17.5503 -0.329525 -2.57289
rclavicle -6.75868e-015 2.78299e-015
rhumerus -28.5633 0.203013 -84.0644
rradius 26.1884
rwrist -8.19694
rhand -19.2887 11.339
rfingers 7.12502
rthumb 7.02648 -18.5244
lclavicle -6.75868e-015 2.78299e-015
lhumerus -28.2887 6.20773 85.568
lradius 24.3024
lwrist -0.648666
lhand -8.19629 30.8207
lfingers 7.12502
lthumb 17.72 60.0333
rfemur -17.0004 2.94056 22.5194
rtibia 29.9289
rfoot -16.869 -4.17186
rtoes 2.14544
lfemur -16.0791 2.50174 -11.3194
ltibia 32.5426
lfoot -19.8321 1.57235
ltoes -7.91071
73
root 0.189065 17.8827 -9.86274 8.51163 -1.93652 -6.08215
lowerback -6.81093 0.44572 -0.843752
upperback 0.204734 0.477211 4.53457
thorax 3.9937 0.173227 5.25305
lowerneck -17.8213 -0.717727 -0.3108
upperneck 40.613 1.09781 -4.85234
head 18.2711 -0.31051 -2.01108
rclavicle 5.26779e-015 9.54166e-015
rhumerus -28.6772 0.355883 -84.0621
rradius 26.2486
rwrist -8.17716
rhand -19.2242 11.1401
rfingers 7.12502
rthumb 7.08873 -18.7212
lclavicle 5.26779e-015 9.54166e-015
lhumerus -28.4265 6.32927 85.4488
lradius 24.1397
lwrist -0.746803
lhand -8.16829 31.0287
lfingers 7.12502
lthumb 17.7469 60.2389
rfemur -16.9436 2.92519 22.5646
rtibia 29.905
rfoot -17.0019 -4.13972
rtoes 2.21476
lfemur -16.0449 2.57198 -11.2747
ltibia 32.5505
lfoot -19.8456 1.55044
ltoes -8.16337
74
root 0.192553 17.8819 -9.86193 8.46315 -1.9299 -6.07341
lowerback -6.74708 0.421236 -0.906714
upperback 0.244048 0.448138 4.561
thorax 4.00096 0.156445 5.31367
lowerneck -17.6968 -0.660758 -0.191857
upperneck 40.501 1.19165 -4.98888
head 18.1775 -0.272351 -2.07146
rclavicle -9.44227e-016 -3.81667e-014
rhumerus -28.6735 0.399672 -84.0303
rradius 26.2319
rwrist -8.139
rhand -19.2392 11.1266
rfingers 7.12502
rthumb 7.07421 -18.7352
lclavicle -9.44227e-016 -3.81667e-014
lhumerus -28.4373 6.46736 85.3396
lradius 23.9062
lwrist -0.992938
lhand -8.18446 31.0316
lfingers 7.12502
lthumb 17.7313 60.2431
rfemur -16.8654 2.86627 22.5445
rtibia 29.8751
rfoot -17.0142 -4.05314
rtoes 2.55831
lfemur -16.005 2.63535 -11.3105
ltibia 32.5702
lfoot -19.9234 1.69228
ltoes -9.31539
75
root 0.19512 17.8849 -9.86148 8.46774 -1.92809 -5.96146
lowerback -6.78756 0.413977 -1.08932
upperback 0.281286 0.452152 4.54208
thorax 4.06104 0.153205 5.40023
lowerneck -17.4128 -0.652176 0.113763
upperneck 40.2488 1.20066 -5.29563
head 17.9578 -0.261143 -2.25304
rclavicle 2.23633e-015 -2.50469e-014
rhumerus -28.6802 0.260326 -83.9743
rradius 26.2264
rwrist -8.02676
rhand -19.2091 11.1799
rfingers 7.12502
rthumb 7.10329 -18.6809
lclavicle 2.23633e-015 -2.50469e-014
lhumerus -28.3907 6.67985 85.1944
lradius 23.6121
lwrist -1.40918
lhand -8.0547 31.1533
lfingers 7.12502
lthumb 17.8562 60.3536
rfemur -16.8482 2.88565 22.4052
rtibia 29.8525
rfoot -16.8833 -4.07328
rtoes 2.49343
lfemur -16.0073 2.63299 -11.4449
ltibia 32.5856
lfoot -19.9777 1.64172
ltoes -8.94884
76
root 0.198122 17.8845 -9.86312 8.5319 -1.9614 -5.91563
lowerback -6.78332 0.410395 -1.20096
upperback 0.23508 0.458099 4.53873
thorax 4.00911 0.155535 5.46027
lowerneck -16.8153 -0.602137 0.804281
upperneck 39.8099 1.26805 -5.96214
head 17.5596 -0.215089 -2.64376
rclavicle -3.37934e-015 2.50469e-014
rhumerus -28.8056 0.192682 -83.954
rradius 26.2766
rwrist -7.91814
rhand -19.2307 11.1125
rfingers 7.12502
rthumb 7.08242 -18.749
lclavicle -3.37934e-015 2.50469e-014
lhumerus -28.4549 6.89614 85.0112
lradius 23.3124
lwrist -1.84057
lhand -7.80051 31.2001
lfingers 7.12502
lthumb 18.1008 60.3778
rfemur -16.9225 2.94371 22.3305
rtibia 29.8327
rfoot -16.8783 -4.08486
rtoes 2.4207
lfemur -16.0773 2.65075 -11.5011
ltibia 32.5915
lfoot -19.9723 1.49235
ltoes -8.10295
77
root 0.203485 17.8848 -9.8664 8.59536 -2.02338 -5.95754
lowerback -6.74145 0.440491 -1.14002
upperback 0.222263 0.494519 4.53549
thorax 3.96885 0.175948 5.42435
lowerneck -17.1541 -0.636702 0.302206
upperneck 40.291 1.22315 -5.46923
head 17.9167 -0.24501 -2.36209
rclavicle -1.15792e-014 1.59028e-015
rhumerus -28.833 0.1296 -83.9453
rradius 26.309
rwrist -7.93002
rhand -19.2973 11.0579
rfingers 7.12502
rthumb 7.01818 -18.8058
lclavicle -1.15792e-014 1.59028e-015
lhumerus -28.4367 6.8915 84.9102
lradius 23.0236
lwrist -2.11279
lhand -7.84047 31.0314
lfingers 7.12502
lthumb 18.0623 60.2128
rfemur -17.0121 3.00168 22.3422
rtibia 29.8213
rfoot -16.9479 -4.01256
rtoes 2.68403
lfemur -16.1508 2.68627 -11.4831
ltibia 32.5925
lfoot -19.9707 1.51784
ltoes -8.16945
78
root 0.20906 17.8855 -9.86874 8.59867 -2.09278 -6.02453
lowerback -6.70942 0.497747 -1.00735
upperback 0.303174 0.559161 4.5131
thorax 4.02982 0.208874 5.3319
lowerneck -17.2702 -0.643284 0.344412
upperneck 40.2975 1.20272 -5.47629
head 17.9504 -0.248388 -2.37921
rclavicle 3.8763e-015 -2.06736e-014
rhumerus -28.6675 -0.0951896 -83.9181
rradius 26.2271
rwrist -7.90172
rhand -19.3855 11.1943
rfingers 7.12502
rthumb 6.933 -18.6722
lclavicle 3.8763e-015 -2.06736e-014
lhumerus -28.3094 6.88125 84.8254
lradius 22.7931
lwrist -2.30659
lhand -8.11052 31.0756
lfingers 7.12502
lthumb 17.8025 60.2807
rfemur -17.0365 3.06066 22.387
rtibia 29.8267
rfoot -16.9112 -3.94926
rtoes 3.00022
lfemur -16.1432 2.71002 -11.4357
ltibia 32.5918
lfoot -19.9939 1.63283
ltoes -8.38877
79
root 0.21188 17.884 -9.8701 8.57259 -2.10885 -6.02559
lowerback -6.70055 0.495539 -1.04235
upperback 0.389363 0.556103 4.51815
thorax 4.11465 0.203724 5.3586
lowerneck -16.96 -0.591085 0.897928
upperneck 39.9063 1.26719 -5.9872
head 17.653 -0.205521 -2.68023
rclavicle 9.49197e-015 2.06736e-014
rhumerus -28.4898 -0.203629 -83.8871
rradius 26.1022
rwrist -7.81003
rhand -19.4624 11.3503
rfingers 7.12502
rthumb 6.85884 -18.5186
lclavicle 9.49197e-015 2.06736e-014
lhumerus -28.2413 6.98697 84.7305
lradius 22.6192
lwrist -2.49579
lhand -8.19899 31.3776
lfingers 7.12502
lthumb 17.7174 60.5904
rfemur -17.0267 3.07909 22.3818
rtibia 29.8425
rfoot -16.8989 -4.00239
rtoes 2.75775
lfemur -16.1195 2.71924 -11.445
ltibia 32.5916
lfoot -20.0044 1.67478
ltoes -8.49422
80
root 0.213146 17.8844 -9.87172 8.59855 -2.11022 -5.96918
lowerback -6.69526 0.456007 -1.18439
upperback 0.395383 0.514578 4.51725
thorax 4.12103 0.179696 5.43492
lowerneck -17.2297 -0.582311 0.361633
upperneck 40.3282 1.29411 -5.4825
head 17.9628 -0.209758 -2.36835
rclavicle 1.65488e-014 4.37326e-015
rhumerus -28.5121 -0.0486048 -83.9287
rradius 26.141
rwrist -7.90727
rhand -19.4789 11.2676
rfingers 7.12502
rthumb 6.84284 -18.6019
lclavicle 1.65488e-014 4.37326e-015
lhumerus -28.2741 7.12564 84.5953
lradius 22.4305
lwrist -2.70059
lhand -8.17518 31.65
lfingers 7.12502
lthumb 17.7403 60.8608
rfemur -17.0598 3.07928 22.3114
rtibia 29.8469
rfoot -16.9287 -4.00089
rtoes 2.66915
lfemur -16.1722 2.72177 -11.5185
ltibia 32.6147
lfoot -19.9967 1.66937
ltoes -8.68356
81
root 0.216845 17.8832 -9.87213 8.62609 -2.19315 -6.01865
lowerback -6.72702 0.464736 -1.167
upperback 0.429942 0.52329 4.51735
thorax 4.17424 0.182864 5.42736
lowerneck -17.1727 -0.539393 0.406772
upperneck 40.3221 1.36068 -5.52489
head 17.9485 -0.181608 -2.38231
rclavicle -1.24737e-014 1.98785e-015
rhumerus -28.5408 0.122133 -84.0105
rradius 26.2364
rwrist -8.11407
rhand -19.5324 11.1126
rfingers 7.12502
rthumb 6.79124 -18.7585
lclavicle -1.24737e-014 1.98785e-015
lhumerus -28.2512 7.35011 84.4216
lradius 22.2267
lwrist -2.91043
lhand -8.19117 31.9491
lfingers 7.12502
lthumb 17.7249 61.1612
rfemur -17.0842 3.09135 22.3367
rtibia 29.8412
rfoot -16.9356 -3.85626
rtoes 3.0959
lfemur -16.2105 2.76728 -11.4925
ltibia 32.6578
lfoot -19.9919 1.75918
ltoes -9.01679
82
root 0.223972 17.8824 -9.87353 8.70073 -2.28825 -6.13518
lowerback -6.84181 0.489207 -1.03707
upperback 0.510791 0.540065 4.54154
thorax 4.32263 0.189866 5.38463
lowerneck -16.8793 -0.509024 0.968006
upperneck 39.9169 1.40495 -6.07827
head 17.6484 -0.151716 -2.70846
rclavicle 6.95746e-016 8.74653e-015
rhumerus -28.4332 0.247159 -84.0515
rradius 26.2645
rwrist -8.23041
rhand -19.6179 11.0376
rfingers 7.12502
rthumb 6.70872 -18.8362
lclavicle 6.95746e-016 8.74653e-015
lhumerus -28.1446 7.64536 84.2784
lradius 22.0812
lwrist -3.12945
lhand -8.18675 32.0189
lfingers 7.12502
lthumb 17.7291 61.2307
rfemur -17.1848 3.12972 22.4194
rtibia 29.8467
rfoot -16.9148 -3.77026
rtoes 3.3573
lfemur -16.2988 2.83246 -11.4144
ltibia 32.6974
lfoot -19.9944 1.78738
ltoes -8.38672
83
root 0.230672 17.884 -9.8771 8.8184 -2.32282 -6.1553
lowerback -6.88637 0.481755 -0.989821
upperback 0.513225 0.525292 4.54335
thorax 4.35219 0.182984 5.35903
lowerneck -17.1919 -0.56482 0.470208
upperneck 40.2777 1.33983 -5.63716
head 17.9286 -0.196815 -2.44896
rclavicle -2.00773e-014 2.66371e-014
rhumerus -28.3882 0.362036 -84.0738
rradius 26.2947
rwrist -8.24084
rhand -19.6201 10.9544
rfingers 7.12502
rthumb 6.70659 -18.9194
lclavicle -2.00773e-014 2.66371e-014
lhumerus -28.1765 7.82512 84.1791
lradius 22.0596
lwrist -3.17763
lhand -8.17024 31.8365
lfingers 7.12502
lthumb 17.745 61.0468
rfemur -17.3501 3.15751 22.3992
rtibia 29.8528
rfoot -16.8843 -3.7421
rtoes 3.48499
lfemur -16.4574 2.82768 -11.436
ltibia 32.7395
lfoot -19.9842 1.74823
ltoes -7.41557
84
root 0.235937 17.8816 -9.88045 8.881 -2.32268 -6.13652
lowerback -6.79473 0.452297 -0.997653
upperback 0.47314 0.489085 4.54534
thorax 4.26215 0.166953 5.35899
lowerneck -17.3335 -0.545411 0.12577
upperneck 40.5566 1.38848 -5.33476
head 18.1281 -0.190671 -2.25089
rclavicle -3.62782e-015 3.97569e-016
rhumerus -28.3642 0.45032 -84.0693
rradius 26.2814
rwrist -8.0632
rhand -19.4727 10.6855
rfingers 7.12502
rthumb 6.84887 -19.1837
lclavicle -3.62782e-015 3.97569e-016
lhumerus -28.3059 7.88081 84.1255
lradius 22.0608
lwrist -3.0967
lhand -8.22154 31.7477
lfingers 7.12502
lthumb 17.6957 60.9625
rfemur -17.435 3.15067 22.351
rtibia 29.8342
rfoot -16.8782 -3.70717
rtoes 3.5835
lfemur -16.5897 2.75586 -11.4857
ltibia 32.8019
lfoot -19.9216 1.96901
ltoes -8.53924
85
root 0.24229 17.8803 -9.88272 8.91486 -2.35989 -6.14319
lowerback -6.58902 0.435805 -0.999946
upperback 0.409765 0.471207 4.57159
thorax 4.08158 0.161871 5.38058
lowerneck -17.4207 -0.513978 -0.0311145
upperneck 40.758 1.47387 -5.25251
head 18.2747 -0.171411 -2.17787
rclavicle -4.02539e-015 -1.27222e-014
rhumerus -28.3611 0.556135 -84.0316
rradius 26.2174
rwrist -7.82376
rhand -19.37 10.5346
rfingers 7.12502
rthumb 6.94798 -19.3314
lclavicle -4.02539e-015 -1.27222e-014
lhumerus -28.4394 8.11927 83.9971
lradius 21.9276
lwrist -3.22582
lhand -8.32269 31.3962
lfingers 7.12502
lthumb 17.5983 60.6197
rfemur -17.4824 3.1284 22.3268
rtibia 29.817
rfoot -16.874 -3.61991
rtoes 3.69643
lfemur -16.6655 2.70417 -11.5163
ltibia 32.8601
lfoot -19.8835 2.21509
ltoes -9.77017
